<svg id="Layer_1" data-name="Layer 1" xmlns="http://www.w3.org/2000/svg" viewBox="0 0 473.17 252.73"><defs><style>.cls-1{fill:#4f4d4d;}</style></defs><path class="cls-1" d="M668.58,338.44a128.36,128.36,0,0,1-.94,15.53A126.42,126.42,0,0,1,557.5,463.89V431.27A94.28,94.28,0,0,0,635,354H559.87V322.91H667.63A126.6,126.6,0,0,1,668.58,338.44Z" transform="translate(-195.42 -212.07)"/><path class="cls-1" d="M535.08,432.25v32.36a125.65,125.65,0,0,1-56.36-16.9c-2.48-1.43-4.91-3-7.27-4.56a127.2,127.2,0,0,1-33.93-33.93q-2.41-3.57-4.58-7.29c-.32-.54-.63-1.09-.94-1.64a125.83,125.83,0,0,1-16.15-61.85,94.22,94.22,0,0,0-82.55-93.38V212.59a125.47,125.47,0,0,1,52.46,16.86,127,127,0,0,1,37.78,34.07h0a129.45,129.45,0,0,1,7.2,10.92c.42.72.84,1.43,1.25,2.16a125.92,125.92,0,0,1,16.14,61.84A94.21,94.21,0,0,0,535.08,432.25Z" transform="translate(-195.42 -212.07)"/><path class="cls-1" d="M647.24,268.13l-26.83,18.05a94.57,94.57,0,0,0-21.65-22.88,93.92,93.92,0,0,0-130.45,17l-23-23a126.39,126.39,0,0,1,181.42-12.82A128.08,128.08,0,0,1,647.24,268.13Z" transform="translate(-195.42 -212.07)"/><path class="cls-1" d="M395.77,396.47l23,23A126.36,126.36,0,1,1,310.88,212.54V245a94.08,94.08,0,1,0,84.89,151.48Z" transform="translate(-195.42 -212.07)"/></svg>